<?xml version="1.0" standalone="no"?>
<!DOCTYPE svg PUBLIC "-//W3C//DTD SVG 20010904//EN"
 "http://www.w3.org/TR/2001/REC-SVG-20010904/DTD/svg10.dtd">
<svg version="1.0" xmlns="http://www.w3.org/2000/svg"
 width="130.000000pt" height="130.000000pt" viewBox="0 0 130.000000 130.000000"
 preserveAspectRatio="xMidYMid meet">
<metadata>
Created by potrace 1.11, written by Peter Selinger 2001-2013
</metadata>
<g transform="translate(0.000000,130.000000) scale(0.100000,-0.100000)"
fill="#000000" stroke="none">
<path d="M668 1275 c-2 -2 -32 -5 -68 -8 -36 -3 -83 -11 -105 -18 -45 -14 -41
-13 -77 -23 -16 -5 -28 -13 -28 -19 0 -6 -3 -8 -6 -4 -4 3 -34 -13 -68 -35
-142 -97 -238 -247 -263 -413 -8 -58 -3 -230 7 -230 1 0 4 -9 14 -50 8 -38 69
-155 96 -189 75 -91 216 -196 253 -188 4 1 7 -3 7 -10 0 -6 3 -8 6 -5 4 3 14
2 24 -3 9 -5 29 -12 43 -15 15 -3 39 -8 55 -11 32 -7 153 -8 202 -1 20 3 52
12 73 20 20 9 37 14 37 11 0 -15 145 75 192 119 74 71 146 169 149 204 0 5 5
13 11 20 5 7 18 45 27 85 17 70 20 193 7 273 -9 49 -43 134 -78 193 -33 56
-161 192 -180 192 -5 0 -22 8 -36 18 -24 16 -69 37 -127 58 -24 8 -37 11 -90
19 -22 3 -48 7 -57 9 -9 2 -18 3 -20 1z"/>
</g>
</svg>
